<?xml version="1.0" encoding="UTF-8" standalone="no"?>
<!DOCTYPE svg PUBLIC "-//W3C//DTD SVG 1.1//EN"
 "http://www.w3.org/Graphics/SVG/1.1/DTD/svg11.dtd">
<!-- Generated by graphviz version 2.36.0 (20140111.2315)
 -->
<!-- Title: models_diagram Pages: 1 -->
<svg width="252pt" height="432pt"
 viewBox="0.00 0.00 252.00 432.00" xmlns="http://www.w3.org/2000/svg" xmlns:xlink="http://www.w3.org/1999/xlink">
<g id="graph0" class="graph" transform="scale(1 1) rotate(0) translate(4 428)">
<title>models_diagram</title>
<polygon fill="none" stroke="none" points="-4,4 -4,-428 248,-428 248,4 -4,4"/>
<!-- Worker -->
<g id="node1" class="node"><title>Worker</title>
<path fill="none" stroke="black" d="M12,-317C12,-317 232,-317 232,-317 238,-317 244,-323 244,-329 244,-329 244,-411 244,-411 244,-417 238,-423 232,-423 232,-423 12,-423 12,-423 6,-423 0,-417 0,-411 0,-411 0,-329 0,-329 0,-323 6,-317 12,-317"/>
<text text-anchor="middle" x="122" y="-407.8" font-family="Times,serif" font-size="14.00">Worker</text>
<polyline fill="none" stroke="black" points="0,-400 244,-400 "/>
<text text-anchor="start" x="8" y="-384.8" font-family="Times,serif" font-size="14.00">id :integer</text>
<text text-anchor="start" x="8" y="-369.8" font-family="Times,serif" font-size="14.00">name :character varying</text>
<text text-anchor="start" x="8" y="-354.8" font-family="Times,serif" font-size="14.00">email :character varying</text>
<text text-anchor="start" x="8" y="-339.8" font-family="Times,serif" font-size="14.00">created_at :timestamp without time zone</text>
<text text-anchor="start" x="8" y="-324.8" font-family="Times,serif" font-size="14.00">updated_at :timestamp without time zone</text>
</g>
<!-- Operation -->
<g id="node2" class="node"><title>Operation</title>
<path fill="none" stroke="black" d="M12,-158.5C12,-158.5 232,-158.5 232,-158.5 238,-158.5 244,-164.5 244,-170.5 244,-170.5 244,-267.5 244,-267.5 244,-273.5 238,-279.5 232,-279.5 232,-279.5 12,-279.5 12,-279.5 6,-279.5 0,-273.5 0,-267.5 0,-267.5 0,-170.5 0,-170.5 0,-164.5 6,-158.5 12,-158.5"/>
<text text-anchor="middle" x="122" y="-264.3" font-family="Times,serif" font-size="14.00">Operation</text>
<polyline fill="none" stroke="black" points="0,-256.5 244,-256.5 "/>
<text text-anchor="start" x="8" y="-241.3" font-family="Times,serif" font-size="14.00">id :integer</text>
<text text-anchor="start" x="8" y="-226.3" font-family="Times,serif" font-size="14.00">completed :boolean</text>
<text text-anchor="start" x="8" y="-211.3" font-family="Times,serif" font-size="14.00">worker_id :integer</text>
<text text-anchor="start" x="8" y="-196.3" font-family="Times,serif" font-size="14.00">created_at :timestamp without time zone</text>
<text text-anchor="start" x="8" y="-181.3" font-family="Times,serif" font-size="14.00">updated_at :timestamp without time zone</text>
<text text-anchor="start" x="8" y="-166.3" font-family="Times,serif" font-size="14.00">inventory_id :integer</text>
</g>
<!-- Worker&#45;&gt;Operation -->
<g id="edge1" class="edge"><title>Worker&#45;&gt;Operation</title>
<path fill="none" stroke="#6a3237" d="M122,-308.615C122,-302.513 122,-296.28 122,-290.088"/>
<ellipse fill="none" stroke="#6a3237" cx="122" cy="-312.887" rx="4" ry="4"/>
<polygon fill="#6a3237" stroke="#6a3237" points="122,-289.735 126.5,-279.735 122,-284.735 122,-279.735 122,-279.735 122,-279.735 122,-284.735 117.5,-279.735 122,-289.735 122,-289.735"/>
</g>
<!-- Inventory -->
<g id="node3" class="node"><title>Inventory</title>
<path fill="none" stroke="black" d="M12,-0.5C12,-0.5 232,-0.5 232,-0.5 238,-0.5 244,-6.5 244,-12.5 244,-12.5 244,-109.5 244,-109.5 244,-115.5 238,-121.5 232,-121.5 232,-121.5 12,-121.5 12,-121.5 6,-121.5 0,-115.5 0,-109.5 0,-109.5 0,-12.5 0,-12.5 0,-6.5 6,-0.5 12,-0.5"/>
<text text-anchor="middle" x="122" y="-106.3" font-family="Times,serif" font-size="14.00">Inventory</text>
<polyline fill="none" stroke="black" points="0,-98.5 244,-98.5 "/>
<text text-anchor="start" x="8" y="-83.3" font-family="Times,serif" font-size="14.00">id :integer</text>
<text text-anchor="start" x="8" y="-68.3" font-family="Times,serif" font-size="14.00">sku :character varying</text>
<text text-anchor="start" x="8" y="-53.3" font-family="Times,serif" font-size="14.00">wheelsize :integer</text>
<text text-anchor="start" x="8" y="-38.3" font-family="Times,serif" font-size="14.00">description :text</text>
<text text-anchor="start" x="8" y="-23.3" font-family="Times,serif" font-size="14.00">created_at :timestamp without time zone</text>
<text text-anchor="start" x="8" y="-8.3" font-family="Times,serif" font-size="14.00">updated_at :timestamp without time zone</text>
</g>
<!-- Operation&#45;&gt;Inventory -->
<g id="edge2" class="edge"><title>Operation&#45;&gt;Inventory</title>
<path fill="none" stroke="#b8d8c6" d="M122,-149.936C122,-143.327 122,-136.621 122,-130.012"/>
<ellipse fill="none" stroke="#b8d8c6" cx="122" cy="-154.132" rx="4" ry="4"/>
<ellipse fill="#b8d8c6" stroke="#b8d8c6" cx="122" cy="-125.707" rx="4" ry="4"/>
</g>
</g>
</svg>
