<?xml version="1.0" encoding="UTF-8" standalone="no"?>
<!DOCTYPE svg PUBLIC "-//W3C//DTD SVG 1.1//EN"
 "http://www.w3.org/Graphics/SVG/1.1/DTD/svg11.dtd">
<!-- Generated by graphviz version 2.36.0 (20140111.2315)
 -->
<!-- Title: models_diagram Pages: 1 -->
<svg width="323pt" height="230pt"
 viewBox="0.00 0.00 323.00 230.00" xmlns="http://www.w3.org/2000/svg" xmlns:xlink="http://www.w3.org/1999/xlink">
<g id="graph0" class="graph" transform="scale(1 1) rotate(0) translate(4 226)">
<title>models_diagram</title>
<polygon fill="none" stroke="none" points="-4,4 -4,-226 319,-226 319,4 -4,4"/>
<!-- _diagram_info -->
<g id="node1" class="node"><title>_diagram_info</title>
<text text-anchor="start" x="7" y="-207.6" font-family="Times,serif" font-size="13.00">Models diagram</text>
<text text-anchor="start" x="7" y="-193.6" font-family="Times,serif" font-size="13.00">Date: Apr 08 2016 &#45; 21:35</text>
<text text-anchor="start" x="7" y="-179.6" font-family="Times,serif" font-size="13.00">Migration version: 20160408233958</text>
<text text-anchor="start" x="7" y="-165.6" font-family="Times,serif" font-size="13.00">Generated by RailRoady 1.4.2</text>
<text text-anchor="start" x="7" y="-151.6" font-family="Times,serif" font-size="13.00">http://railroady.prestonlee.com</text>
</g>
<!-- Worker -->
<g id="node2" class="node"><title>Worker</title>
<ellipse fill="none" stroke="black" cx="269" cy="-183" rx="38.0212" ry="18"/>
<text text-anchor="middle" x="269" y="-179.3" font-family="Times,serif" font-size="14.00">Worker</text>
</g>
<!-- Operation -->
<g id="node3" class="node"><title>Operation</title>
<ellipse fill="none" stroke="black" cx="269" cy="-90" rx="46.2191" ry="18"/>
<text text-anchor="middle" x="269" y="-86.3" font-family="Times,serif" font-size="14.00">Operation</text>
</g>
<!-- Worker&#45;&gt;Operation -->
<g id="edge1" class="edge"><title>Worker&#45;&gt;Operation</title>
<path fill="none" stroke="#b02c44" d="M269,-156.729C269,-144.725 269,-130.362 269,-118.129"/>
<ellipse fill="none" stroke="#b02c44" cx="269" cy="-160.884" rx="4" ry="4"/>
<polygon fill="#b02c44" stroke="#b02c44" points="269,-118.04 273.5,-108.04 269,-113.04 269,-108.04 269,-108.04 269,-108.04 269,-113.04 264.5,-108.04 269,-118.04 269,-118.04"/>
</g>
<!-- Inventory -->
<g id="node4" class="node"><title>Inventory</title>
<ellipse fill="none" stroke="black" cx="269" cy="-18" rx="44.271" ry="18"/>
<text text-anchor="middle" x="269" y="-14.3" font-family="Times,serif" font-size="14.00">Inventory</text>
</g>
<!-- Operation&#45;&gt;Inventory -->
<g id="edge2" class="edge"><title>Operation&#45;&gt;Inventory</title>
<path fill="none" stroke="#fc1235" d="M269,-63.6398C269,-57.348 269,-50.6053 269,-44.3156"/>
<ellipse fill="none" stroke="#fc1235" cx="269" cy="-67.6966" rx="4" ry="4"/>
<ellipse fill="#fc1235" stroke="#fc1235" cx="269" cy="-40.1043" rx="4" ry="4"/>
</g>
</g>
</svg>
