<?xml version="1.0" encoding="UTF-8" standalone="no"?>
<!DOCTYPE svg PUBLIC "-//W3C//DTD SVG 1.1//EN"
 "http://www.w3.org/Graphics/SVG/1.1/DTD/svg11.dtd">
<!-- Generated by graphviz version 2.36.0 (20140111.2315)
 -->
<!-- Title: models_diagram Pages: 1 -->
<svg width="483pt" height="432pt"
 viewBox="0.00 0.00 483.00 432.00" xmlns="http://www.w3.org/2000/svg" xmlns:xlink="http://www.w3.org/1999/xlink">
<g id="graph0" class="graph" transform="scale(1 1) rotate(0) translate(4 428)">
<title>models_diagram</title>
<polygon fill="none" stroke="none" points="-4,4 -4,-428 479,-428 479,4 -4,4"/>
<!-- _diagram_info -->
<g id="node1" class="node"><title>_diagram_info</title>
<text text-anchor="start" x="7" y="-394.6" font-family="Times,serif" font-size="13.00">Models diagram</text>
<text text-anchor="start" x="7" y="-380.6" font-family="Times,serif" font-size="13.00">Date: Apr 08 2016 &#45; 21:35</text>
<text text-anchor="start" x="7" y="-366.6" font-family="Times,serif" font-size="13.00">Migration version: 20160408233958</text>
<text text-anchor="start" x="7" y="-352.6" font-family="Times,serif" font-size="13.00">Generated by RailRoady 1.4.2</text>
<text text-anchor="start" x="7" y="-338.6" font-family="Times,serif" font-size="13.00">http://railroady.prestonlee.com</text>
</g>
<!-- Worker -->
<g id="node2" class="node"><title>Worker</title>
<path fill="none" stroke="black" d="M243,-317C243,-317 463,-317 463,-317 469,-317 475,-323 475,-329 475,-329 475,-411 475,-411 475,-417 469,-423 463,-423 463,-423 243,-423 243,-423 237,-423 231,-417 231,-411 231,-411 231,-329 231,-329 231,-323 237,-317 243,-317"/>
<text text-anchor="middle" x="353" y="-407.8" font-family="Times,serif" font-size="14.00">Worker</text>
<polyline fill="none" stroke="black" points="231,-400 475,-400 "/>
<text text-anchor="start" x="239" y="-384.8" font-family="Times,serif" font-size="14.00">id :integer</text>
<text text-anchor="start" x="239" y="-369.8" font-family="Times,serif" font-size="14.00">name :character varying</text>
<text text-anchor="start" x="239" y="-354.8" font-family="Times,serif" font-size="14.00">email :character varying</text>
<text text-anchor="start" x="239" y="-339.8" font-family="Times,serif" font-size="14.00">created_at :timestamp without time zone</text>
<text text-anchor="start" x="239" y="-324.8" font-family="Times,serif" font-size="14.00">updated_at :timestamp without time zone</text>
</g>
<!-- Operation -->
<g id="node3" class="node"><title>Operation</title>
<path fill="none" stroke="black" d="M243,-158.5C243,-158.5 463,-158.5 463,-158.5 469,-158.5 475,-164.5 475,-170.5 475,-170.5 475,-267.5 475,-267.5 475,-273.5 469,-279.5 463,-279.5 463,-279.5 243,-279.5 243,-279.5 237,-279.5 231,-273.5 231,-267.5 231,-267.5 231,-170.5 231,-170.5 231,-164.5 237,-158.5 243,-158.5"/>
<text text-anchor="middle" x="353" y="-264.3" font-family="Times,serif" font-size="14.00">Operation</text>
<polyline fill="none" stroke="black" points="231,-256.5 475,-256.5 "/>
<text text-anchor="start" x="239" y="-241.3" font-family="Times,serif" font-size="14.00">id :integer</text>
<text text-anchor="start" x="239" y="-226.3" font-family="Times,serif" font-size="14.00">completed :boolean</text>
<text text-anchor="start" x="239" y="-211.3" font-family="Times,serif" font-size="14.00">worker_id :integer</text>
<text text-anchor="start" x="239" y="-196.3" font-family="Times,serif" font-size="14.00">created_at :timestamp without time zone</text>
<text text-anchor="start" x="239" y="-181.3" font-family="Times,serif" font-size="14.00">updated_at :timestamp without time zone</text>
<text text-anchor="start" x="239" y="-166.3" font-family="Times,serif" font-size="14.00">inventory_id :integer</text>
</g>
<!-- Worker&#45;&gt;Operation -->
<g id="edge1" class="edge"><title>Worker&#45;&gt;Operation</title>
<path fill="none" stroke="#8c1afa" d="M353,-308.615C353,-302.513 353,-296.28 353,-290.088"/>
<ellipse fill="none" stroke="#8c1afa" cx="353" cy="-312.887" rx="4" ry="4"/>
<polygon fill="#8c1afa" stroke="#8c1afa" points="353,-289.735 357.5,-279.735 353,-284.735 353,-279.735 353,-279.735 353,-279.735 353,-284.735 348.5,-279.735 353,-289.735 353,-289.735"/>
</g>
<!-- Inventory -->
<g id="node4" class="node"><title>Inventory</title>
<path fill="none" stroke="black" d="M243,-0.5C243,-0.5 463,-0.5 463,-0.5 469,-0.5 475,-6.5 475,-12.5 475,-12.5 475,-109.5 475,-109.5 475,-115.5 469,-121.5 463,-121.5 463,-121.5 243,-121.5 243,-121.5 237,-121.5 231,-115.5 231,-109.5 231,-109.5 231,-12.5 231,-12.5 231,-6.5 237,-0.5 243,-0.5"/>
<text text-anchor="middle" x="353" y="-106.3" font-family="Times,serif" font-size="14.00">Inventory</text>
<polyline fill="none" stroke="black" points="231,-98.5 475,-98.5 "/>
<text text-anchor="start" x="239" y="-83.3" font-family="Times,serif" font-size="14.00">id :integer</text>
<text text-anchor="start" x="239" y="-68.3" font-family="Times,serif" font-size="14.00">sku :character varying</text>
<text text-anchor="start" x="239" y="-53.3" font-family="Times,serif" font-size="14.00">wheelsize :integer</text>
<text text-anchor="start" x="239" y="-38.3" font-family="Times,serif" font-size="14.00">description :text</text>
<text text-anchor="start" x="239" y="-23.3" font-family="Times,serif" font-size="14.00">created_at :timestamp without time zone</text>
<text text-anchor="start" x="239" y="-8.3" font-family="Times,serif" font-size="14.00">updated_at :timestamp without time zone</text>
</g>
<!-- Operation&#45;&gt;Inventory -->
<g id="edge2" class="edge"><title>Operation&#45;&gt;Inventory</title>
<path fill="none" stroke="#970b8f" d="M353,-149.936C353,-143.327 353,-136.621 353,-130.012"/>
<ellipse fill="none" stroke="#970b8f" cx="353" cy="-154.132" rx="4" ry="4"/>
<ellipse fill="#970b8f" stroke="#970b8f" cx="353" cy="-125.707" rx="4" ry="4"/>
</g>
</g>
</svg>
